<?xml version="1.0" encoding="utf-8"?>
<!-- Generator: Adobe Illustrator 21.0.2, SVG Export Plug-In . SVG Version: 6.00 Build 0)  -->
<svg version="1.1" id="Layer_1" xmlns="http://www.w3.org/2000/svg" xmlns:xlink="http://www.w3.org/1999/xlink" x="0px" y="0px"
	 viewBox="0 0 768.4 1067.5" style="enable-background:new 0 0 768.4 1067.5;" xml:space="preserve">
<g>
	<path d="M497.5,573.4c-2.3,10.2-4.6,20.3-6.9,30.5c-3,13.3-6,26.7-9,40c-4.9,21.6-9.7,43.2-14.6,64.8l-3.2,14.3
		c-1.5,6.7-3,13.4-4.5,20.2c-1.4,6.1-2.7,12.1-4.1,18.2c-5.9,26.3-11.8,52.6-17.7,78.8c-5.6,25-11.2,49.9-16.8,74.9
		c-2.5,11-5,22.1-7.4,33.1c-3.5,15.5-7,31-10.5,46.4c-3,13.2-5.9,26.4-8.9,39.7c-2,9.1-4.1,18.3-6.1,27.4h-11.3l-33.2-147.8
		l-36.5-162.4c19.3,6.5,40.4,9.9,61.7,9.9c16.8,0,34-2.2,45.9-6l3-1l0.4-3.2l7-53.5l0.9-7.1l-7,1.6c-0.9,0.2-1.8,0.4-2.6,0.6
		c-1.9,0.4-3.7,0.8-5.5,1.2c-14.6,3.1-29.5,4.6-44.3,4.6c-4.1,0-8.2-0.1-12.3-0.4c-20.2-1.2-39.6-4.8-57.7-10.8
		c-0.5-0.2-1-0.4-1.6-0.6c-0.9-0.3-1.7-0.6-2.7-0.9c-1.7-7.8-3.5-15.8-5.2-23.5c-0.5-2.2-1-4.4-1.5-6.6c-2.3-10.1-4.5-20.2-6.8-30.4
		l-5.9-26.3c-1.9-8.5-3.8-17.1-5.7-25.6c37.4,8.3,75.5,12.4,113.5,12.4C418.7,586.2,458.1,581.9,497.5,573.4 M382.9,650.7
		c8.3,0,16.8-0.5,25.4-1.5c12.8-1.5,25.6-4.1,37.9-7.8c3-0.9,4.9-2.9,5.6-5.8c0.8-3.5,1.7-7.2,2.6-10.7c0.5-1.9,1-3.9,1.4-5.8
		c0.4-1.5,0.7-3.1,1.1-4.7c0.2-0.8,0.3-1.5,0.5-2.3l1.9-8.1l-8.1,2.2c-22.3,6.1-45,9.1-67.5,9.1c-22.9,0-46.4-3.2-69.8-9.5l-7.7-2.1
		l1.5,7.8c0.1,0.3,0.1,0.6,0.1,0.8c0.1,0.6,0.2,1.2,0.4,1.8c0.5,2,1,4,1.5,5.9c1.1,4.5,2.3,9.1,3.3,13.7c1.1,5.3,4.7,7,7.3,7.8
		c17.1,5.5,35.4,8.4,55.9,9.1C378.4,650.6,380.6,650.7,382.9,650.7 M378,957.3l5-1l0.3-0.1l0.2,0l3.3-0.7l0.6-3.4l10.3-59.7
		l15.4-88.8l1.5-8.9l-8.4,3.4c-8.4,3.4-16.3,5.1-24.2,5.2l-0.4,0c-8,0-15.7-1.6-23.5-5l-8.5-3.7l1.6,9.1l9.3,53.8l16.4,94.8
		L378,957.3 M503.9,566.9c-41.3,9.4-82.5,14.3-123.7,14.3c-40,0-80-4.6-120-14.1c0.1,0.5,0.1,0.9,0.2,1.2
		c2.4,10.7,4.8,21.4,7.2,32.1c4.2,18.9,8.5,37.7,12.7,56.6c2.3,10.1,4.6,20.1,6.7,30.2c0.4,1.9,1.2,2.9,3.1,3.4
		c1.5,0.4,3,1.1,4.5,1.6c19.2,6.3,38.8,9.9,59,11c4.2,0.2,8.4,0.4,12.6,0.4c15.2,0,30.3-1.6,45.3-4.7c2.7-0.6,5.4-1.2,8.2-1.8
		c0,0.2-7,53.5-7,53.5c-9.5,3-25.4,5.8-44.4,5.8c-20.5,0-44.7-3.2-68.6-12.8c24.3,108,48.4,215.6,72.6,323.1c6.6,0,12.9,0,19.2,0
		c0.2-0.7,0.4-1.3,0.5-1.9c5.2-23,10.3-46,15.5-69c6-26.5,11.9-53,17.9-79.5c5.6-25,11.2-49.9,16.8-74.9
		c5.9-26.3,11.8-52.6,17.7-78.8c2.9-12.8,5.7-25.6,8.6-38.4c5.9-26.4,11.8-52.7,17.8-79.1c5.6-24.9,11.2-49.7,16.8-74.6
		C503.5,569.3,503.7,568.2,503.9,566.9L503.9,566.9z M382.9,645.7c-2.2,0-4.4,0-6.5-0.1c-18.5-0.6-36.8-3.2-54.5-8.9
		c-2.2-0.7-3.4-1.7-3.9-4.1c-1.4-6.6-3.2-13.2-4.8-19.8c-0.2-0.7-0.3-1.4-0.4-2.3c23.8,6.4,47.4,9.7,71.1,9.7
		c22.9,0,45.8-3.1,68.8-9.3c-0.6,2.5-1.1,4.8-1.6,7c-1.3,5.5-2.7,11-4,16.5c-0.3,1.3-0.9,1.8-2.1,2.2c-12.1,3.6-24.5,6.2-37,7.6
		C399.4,645.2,391.2,645.7,382.9,645.7L382.9,645.7z M381.8,808.2c0.1,0,0.3,0,0.4,0c8.9-0.1,17.4-2,26.1-5.5
		c-8.6,49.9-17.2,99.2-25.7,148.6c-0.2,0-0.4,0.1-0.5,0.1c-8.5-49.3-17.1-98.7-25.7-148.5C364.7,806.5,373.1,808.2,381.8,808.2
		L381.8,808.2z"/>
</g>
<g>
	<path d="M609.6,571c-0.1,1.1-0.2,2.2-0.3,3.4c-0.4,5.4-0.8,11-1.5,16.4c-2,16.8-5.3,33.7-9.8,50.4c-5.6,21.1-13,41.2-21.9,59.9
		c-7.1,14.8-15.5,29.3-25.1,42.9c-0.5,0.7-0.9,1-1.6,1.3c-8.2,3.3-17.1,6-27.2,8.3c-13.2,3-24.1,5.4-34.1,7.4
		c-5.9,1.2-12,2.2-17.9,3.2c-0.5,0.1-1.1,0.2-1.6,0.3c11.8-32.9,23.7-67.9,31.5-104.3c2.1-0.1,4.3-0.2,6.5-0.4
		c15.1-1.1,35-3.1,54.7-9.2c5.1-1.6,7.8-4.6,8.7-9.8l0.5-2.9c1.8-10.1,3.6-20.5,4.7-30.9c0.1-0.6,0-1.2,0-1.6c0-0.1,0-0.3,0-0.4
		v-4.3l-4.3-0.6c-0.2,0-0.5-0.1-0.7-0.1c-0.6-0.1-1.3-0.2-2-0.3c-3.4-0.2-6.7-0.4-9.8-0.4c-13.3,0-25,2.1-35.8,6.4
		c-4.5,1.8-8.6,4-12.2,6.6c0-0.1,0-0.2,0.1-0.3c0.2-1.2,0.4-2.4,0.6-3.7c0.6-3.9,1.3-7.7,1.9-11.6c0.3-2,0.7-4.1,1-6.1l2-12.4
		l0.2-1.4c3.9,0.1,7.8,0.1,11.7,0.1C554.8,576.7,582.2,574.8,609.6,571 M495.1,731.2l7.1-0.4c0.5,0,0.9,0,1.3-0.1
		c1,0,1.9-0.1,2.8-0.2c2-0.2,4.1-0.5,6.2-0.9c6.1-1.1,14-2.8,21.5-6.8c4.2-2.2,7.1-5.1,8.9-8.9c0.2-0.4,0.5-0.9,0.8-1.5
		c0.1-0.2,0.3-0.5,0.4-0.7c6.5-11.6,11.3-22.7,14.7-33.9c0.4-1.2,0.7-2.4,1-3.7c0.2-0.6,0.3-1.3,0.5-2.1l2.6-9.8l-9.4,3.9
		c-11.5,4.8-23.9,7.8-39,9.3l-3.4,0.3l-0.9,3.2l-13.3,45.3L495.1,731.2 M614.8,565.2c-28.9,4.3-57.7,6.6-86.7,6.6
		c-5.3,0-10.6-0.1-15.9-0.2c-1,6.1-2,12.1-3,18.1c-1,5.9-2,11.8-2.9,17.7c-1,5.9-2.1,11.8-2.5,17.9c0.5-0.1,0.5-0.5,0.7-0.7
		c5.3-6.7,12.2-11.3,20.1-14.4c11-4.4,22.3-6,33.9-6c3.1,0,6.3,0.1,9.5,0.3c0.8,0.1,1.6,0.2,2.4,0.3c0,0.6,0,1.1,0,1.5
		c-1.1,11.2-3.2,22.3-5.1,33.4c-0.6,3.5-2.1,4.9-5.3,5.9c-17.5,5.4-35.4,7.7-53.6,9c-3.4,0.2-6.8,0.4-10.2,0.6
		c-8.1,39.5-21.2,77.3-34.9,115.2c1.1-0.1,1.8-0.1,2.5-0.2c8.5-1.5,17-2.8,25.5-4.5c11.4-2.3,22.8-4.8,34.2-7.4
		c9.5-2.2,18.9-4.9,27.9-8.6c1.6-0.7,2.8-1.6,3.8-3.1c9.7-13.9,18.2-28.4,25.5-43.7c9.3-19.5,16.6-39.8,22.2-60.7
		c4.5-16.8,7.8-33.8,9.9-51c0.9-7.7,1.4-15.4,2-23.2C614.9,567.2,614.8,566.3,614.8,565.2L614.8,565.2z M555.6,670.8
		c-0.6,2.3-1,4-1.5,5.6c-3.5,11.5-8.4,22.4-14.3,32.9c-0.5,0.8-1,1.7-1.4,2.5c-1.4,3-3.7,5.1-6.7,6.6c-6.3,3.3-13.1,5-20,6.3
		c-2,0.3-3.9,0.6-5.9,0.8c-1.2,0.1-2.4,0.1-3.9,0.2c4.5-15.2,8.8-30.1,13.3-45.3C528.9,679.1,542.3,676.4,555.6,670.8L555.6,670.8z"
		/>
</g>
<g>
	<path d="M154.9,571.1c1.6,0.2,3.1,0.4,4.7,0.6c7.8,0.9,15.9,1.9,23.8,2.6c13.1,1.2,24,1.9,34.3,2.2c4,0.1,8.3,0.2,13.6,0.2
		c3.5,0,7.1,0,10.5-0.1c2.1,0,4.3,0,6.4,0l5.8,35.6c-4.4-3.1-9.4-5.7-15.1-7.6c-10.2-3.5-20.9-5.3-32.6-5.3c-3.6,0-7.3,0.2-11.1,0.5
		c-0.6,0.1-1.1,0.2-1.6,0.3c-0.2,0-0.3,0.1-0.5,0.1l-4.6,0.9l0.6,4.6c0.1,1.2,0.3,2.5,0.4,3.7c0.3,2.7,0.6,5.5,1,8.3
		c0.7,4.1,1.4,8.2,2.1,12.1c0.7,4.1,1.4,8.3,2.1,12.4c0.6,4,2.9,6.6,6.8,7.8c10.3,3.3,21.1,5.7,33.1,7.4c9.9,1.4,19.9,2.3,29.7,2.7
		c3.7,17.8,8.5,35.8,14.7,54.9c4.3,13.2,8.8,26.6,13.2,39.6c1.1,3.2,2.2,6.5,3.3,9.7c-15.3-2.6-29.4-5.2-43.5-8.4
		c-11.1-2.6-21.9-5.2-32.5-9c-2.8-1-4.5-1.6-5.2-2.2c-0.7-0.6-1.6-1.9-3.3-4.3c-10-14.6-18.8-30.5-26.2-47.1
		c-8.2-18.5-15-38.3-20.1-59c-4.6-18.6-7.8-37.8-9.4-56.9C155.2,575.3,155,573.2,154.9,571.1 M204.9,669.1c-0.2,0.5-0.9,1.8-0.5,3.5
		l0.1,0.5c0.2,0.9,0.4,1.9,0.7,2.9c4.1,14.7,10.8,27.9,16.2,37.7c2.5,4.6,6,7.9,10.7,10c0.2,0.1,0.5,0.2,0.7,0.3
		c0.4,0.2,0.9,0.4,1.3,0.6c6.1,2.6,12.9,4.4,21.4,5.6c1.5,0.2,2.9,0.3,4.5,0.5c0.7,0.1,1.4,0.1,2.2,0.2l7.4,0.7l-2.1-7.1l-5.7-19.6
		l-7.6-25.8l-1-3.2l-3.4-0.3c-14.6-1.4-27.2-4.4-38.4-9l-4.7-1.9L204.9,669.1 M149.6,565.4c0.2,4.2,0.4,8.3,0.7,12.4
		c1.7,19.5,4.9,38.7,9.5,57.7c5.1,20.5,11.8,40.5,20.4,59.8c7.5,16.8,16.3,32.8,26.7,47.9c4,5.9,4,5.9,11,8.4
		c10.8,3.8,21.9,6.5,33,9.1c16.4,3.8,33,6.7,49.7,9.5c0.8,0.1,1.6,0.2,2.3,0.2c-6.4-19.2-13-38.1-19.1-57
		c-6.2-19.1-11.4-38.4-15.3-58.1c-0.5-0.1-0.8-0.2-1.1-0.2c-10.7-0.4-21.4-1.4-32-2.8c-11-1.5-21.7-3.8-32.2-7.2
		c-2.1-0.7-3.1-1.7-3.4-3.9c-1.3-8.2-2.8-16.4-4.2-24.6c-0.6-3.8-1-7.7-1.4-11.7c0.7-0.1,1.1-0.3,1.6-0.3c3.6-0.3,7.1-0.5,10.7-0.5
		c10.5,0,20.9,1.5,31,5c9,3.1,16.9,8,22.9,15.6c0.2,0.3,0.5,0.4,1.2,1c-3-18.3-5.9-36.1-8.9-54.3c-7.2,0-14.2,0.1-21.2,0.1
		c-4.5,0-8.9,0-13.4-0.2c-11.3-0.4-22.7-1.2-34-2.2C172.5,568.2,161.2,566.7,149.6,565.4L149.6,565.4z M262.7,725.9
		c-2.4-0.2-4.4-0.4-6.5-0.7c-6.9-0.9-13.7-2.4-20.1-5.2c-0.7-0.3-1.3-0.6-2-0.9c-3.7-1.7-6.4-4.2-8.4-7.8
		c-6.4-11.7-12.2-23.7-15.8-36.7c-0.3-1-0.5-2-0.7-3c0-0.1,0.1-0.3,0.2-0.6c12.7,5.3,26,8.1,39.9,9.4
		C253.8,695.7,258.2,710.6,262.7,725.9L262.7,725.9z"/>
</g>
<g>
	<path d="M381,182.6c-2,14.8-6,30.7-12.6,49.9c-7.2,20.9-16.2,42.2-28.5,67.1c-8.2,16.6-13.8,32.3-17.2,48
		c-2.6,12.1-3.5,23.2-2.7,33.8c1.6,22,10.2,40.4,25.7,54.5c4.5,4.2,10.7,9.3,18.4,12.5c6.8,2.8,13.4,4.2,19.8,4.2
		c10.8,0,20.9-4,30.1-11.9c7.4-6.3,13.1-14.5,17.4-24.9c3.8-9.2,6.2-19.1,7.5-30.4c1.4-12.8,1.4-26.2,0-39.9c-0.1-1.4-0.4-3-1.3-4.8
		l-4.7-9.1l-4.3,9.2l-0.6,1.3c-0.5,1-0.9,2-1.4,3c-5.4,11.7-11.5,21.1-18.6,28.7c-0.2,0.3-0.5,0.5-0.7,0.7c0.9-2.2,1.8-4.3,2.6-6.3
		c7.6-19.2,13.3-39,17.4-54.2c1.4-5.2,2.7-10.5,4-15.7c6.2,13.9,10.9,27.2,14.3,40.2c5,19.4,6.9,37.4,5.9,55
		c-1.2,19.6-5.7,36.8-14,52.5c-3.6,6.9-7.9,12.6-13,17.4c-5,4.6-11.6,10.5-19.4,15c-9.1,5.3-17.7,7.9-26.4,8l-0.4,0
		c-10.2,0-19.6-3.3-28.9-10.2c-6.3-4.6-11.9-10.4-17.1-17.8c-4.1-5.7-8.3-11.8-11.7-18.4c-5.8-11.2-9.7-23.4-11.6-36.4
		c-3-20.3-1.5-41.6,4.8-65.2c4.6-17.4,11.3-34.3,19.9-50.3c2.2-4,4.6-8.1,7-12.1c1.3-2.2,2.7-4.6,4.1-6.9l1.2-2.1
		c6-10.4,12.2-21.1,17.3-32.4c3.7-8.2,6.7-16.9,9.4-24.6C375.5,201.5,378.4,192.2,381,182.6 M384.3,147.7c-0.2,0.8-0.3,1-0.3,1.3
		c-4.2,20.3-9.6,40.3-16.4,59.9c-2.8,8.1-5.7,16.3-9.2,24.2c-5.3,11.8-11.8,22.9-18.2,34c-3.7,6.4-7.6,12.6-11.1,19.1
		c-8.8,16.3-15.6,33.4-20.4,51.4c-5.8,22.1-8.3,44.5-4.9,67.2c2,13.3,5.9,26,12.1,38c3.5,6.7,7.7,12.9,12.1,19
		c5.2,7.2,11.1,13.6,18.2,18.9c9.5,7,20,11.1,31.8,11.1c0.1,0,0.3,0,0.5,0c10.4-0.1,19.9-3.5,28.8-8.6c7.4-4.3,14-9.8,20.3-15.7
		c5.8-5.4,10.4-11.7,14.1-18.7c9-17.1,13.4-35.4,14.6-54.5c1.1-19.2-1.3-38-6-56.5c-4.6-17.9-11.4-34.9-19.5-51.5
		c-0.3-0.6-0.6-1.1-1.1-1.9c-0.3,0.9-0.5,1.5-0.7,2.1c-2.3,8.9-4.4,17.9-6.8,26.7c-4.9,18.1-10.3,36.1-17.2,53.6
		c-2.9,7.2-6,14.3-10.2,20.9c-0.8,1.3-1.8,2.6-2.7,3.9c0.3,0,0.4,0.1,0.5,0.1c0,0,0.1,0,0.1,0c0.7-0.3,1.3-0.6,2-0.9
		c6.4-3.3,11.8-8,16.7-13.2c8.3-8.9,14.5-19.1,19.5-30c0.7-1.4,1.3-2.9,2-4.3c0.5,1,0.7,2,0.8,3c1.4,12.9,1.5,25.9,0,38.8
		c-1.1,10-3.3,19.7-7.1,29c-3.6,8.8-8.7,16.8-16,23c-8.4,7.2-17.4,10.7-26.9,10.7c-5.8,0-11.7-1.3-17.9-3.8
		c-6.4-2.7-11.9-6.9-17-11.6c-15-13.8-22.7-31.1-24.1-51.2c-0.8-10.9,0.3-21.7,2.6-32.4c3.5-16.4,9.4-31.9,16.8-46.8
		c10.9-22,20.8-44.4,28.8-67.7c5.8-17,10.7-34.2,13-52c1.1-8.7,1.5-17.4,0.2-26.1C386,153.4,385.6,150.7,384.3,147.7L384.3,147.7z"
		/>
</g>
<g>
	<path d="M748.6,570.8c-16.5,15.1-26.7,34.2-30.2,56.7c-2.6,16.7-8,32.6-16.3,48.7c-1,2-2.1,3.9-3.2,5.8c0.1-0.6,0.2-1.3,0.2-1.9
		c1.1-8.9,1.6-17.9,2-24.7c0.5-9.1,0.6-18,0.6-24.8l0-39.1l-9.9,37.8c-3.2,12.2-8.2,25-15.6,40h-15.7c-0.3-4.8-1.2-9.6-2.1-14.8
		c-0.8-4.3-1.7-8.7-2.6-13c-0.4-1.9-0.8-3.7-1.2-5.6l-0.8-3.8l-3.8-0.2l-0.2,0l-0.2,0l-3.7-0.2l-1.3,3.4c0,0.1-0.1,0.1-0.1,0.2
		c-0.2,0.4-0.4,0.9-0.5,1.6c-5.8,25.1-14.2,49.4-25,72.2c-4.1,8.7-9,17.7-14.5,26.6c-9,1.1-18.1,2.2-26.9,3.2
		c9.1-13.7,17.3-29.3,25.1-47.4c8-18.8,14.5-38.6,19.1-58.9c4.2-18.3,6.9-36.2,8.2-53.3c0.2-2.2,0.3-4.4,0.5-6.6
		c13.1,0,25.6,0.2,38.1,0.4l2.2,17.8l1.4,11.3l0.4,3.5l3.5,0.8l0.5,0.1l4.3,0.9l1.5-4.1l4.5-12.6l6.4-17.8L748.6,570.8 M762.7,565.2
		c-24.3,1-48.6,2-73,3c-4.1,11.3-8.1,22.5-12,33.6c-0.2,0-0.3-0.1-0.5-0.1c-1.4-11.1-2.8-22.2-4.2-33.4c-15.8-0.3-31.5-0.5-47.2-0.5
		c-0.3,4-0.6,7.6-0.8,11.3c-1.3,17.7-4.1,35.2-8.1,52.6c-4.6,19.9-10.8,39.3-18.8,58.1c-8.2,19.2-17.8,37.6-30.1,54.5
		c-0.2,0.2-0.3,0.5-0.5,1c0.4,0.1,0.6,0.1,0.7,0.1c0,0,0,0,0.1,0c12.5-1.5,24.9-3.1,37.4-4.5c1.4-0.2,2.2-0.7,2.8-1.8
		c5.5-8.9,10.6-18.1,15-27.6c11.1-23.5,19.5-47.9,25.4-73.3c0.1-0.4,0.3-0.8,0.4-1.1c0.2,0,0.3,0,0.5,0c1.3,6.2,2.6,12.3,3.7,18.5
		c1.2,6.3,2.3,12.5,2.2,18.8c8.1,0,15.9,0,23.6,0c7.2-14.2,13.4-28.5,17.4-43.7c0,8.2-0.1,16.4-0.6,24.5c-0.5,8.1-1,16.3-2,24.4
		c-1,8-2.4,15.9-3.7,23.9c0.2-0.1,0.3-0.1,0.4-0.2c0.5-0.6,0.9-1.1,1.3-1.7c5.4-7.3,10.1-15,14.3-23c8.2-15.9,14-32.5,16.8-50.2
		c4.1-25.8,17-46.2,38.1-61.5c0.5-0.4,1-0.7,1.4-1.1C762.8,565.5,762.8,565.4,762.7,565.2L762.7,565.2z"/>
</g>
<g>
	<path d="M125.2,573.4c5.1,0,8.7,0,11.1,0.1c0.1,1.2,0.2,2.4,0.3,3.5c1.6,23.1,5.6,46.1,11.7,68.5c6.7,24.2,16,47.5,27.6,69.2
		c4,7.5,8.1,14.4,12.3,20.8c-2.4-1.1-4.7-2.4-7-3.7c-12.8-7.7-23.1-15.9-31.4-25.3c-4.1-4.6-8-9.8-11.5-15.5l-1-1.6
		c-4.8-7.6-9.7-15.5-14.8-23.2c-11.7-17.9-25.8-33.9-42-47.7c-9.8-8.3-20.1-15.6-30.7-23c-4.5-3.1-8.9-6.4-13.1-9.6
		c-5.7-4.4-11.7-8.6-17.9-12.6c3.4,0,6.7,0,10.1,0c10.3,0,20.7,0,31,0c0.8,0,1.3,0.1,1.4,0.2c12,4.3,21.6,8.9,30,14.4
		c6.9,4.6,11.5,8.8,14.9,13.7l14.9,22l-5.9-25.9c-0.9-4-2.2-7.8-3.5-11.5c-0.5-1.3-0.9-2.7-1.3-4c-1-2.9-1.9-5.9-2.9-8.8
		C111.7,573.5,118,573.4,125.2,573.4 M125.2,568.4c-10.9,0-23.5,0.2-24.6,0.6c1.7,5,3.4,9.9,5,14.9c1.6,5,3.5,9.9,4.7,15
		c-4.3-6.3-10-11-16.3-15.1c-9.7-6.3-20.2-11-31-14.9c-1-0.3-2-0.5-3.1-0.5c-10.3,0-20.7,0-31,0c-8.5,0-17.1,0-25.6,0
		c-0.6,0-1.2,0.1-2.3,0.2c0.8,0.5,1.2,0.8,1.6,1c10.9,6,21.2,12.7,31.1,20.3c4.4,3.4,8.8,6.6,13.3,9.8c10.4,7.2,20.7,14.5,30.3,22.7
		c15.9,13.6,29.6,29.1,41.1,46.6c5.3,8.2,10.5,16.4,15.7,24.7c3.6,5.7,7.6,11.1,12,16.1c9.4,10.5,20.5,19,32.6,26.2
		c6.1,3.6,12.5,6.4,19.2,8.5c1,0.3,1.9,0.5,3.4,0.9c-0.7-1-1-1.5-1.3-2c-7.4-9.8-13.9-20.3-19.7-31.2
		c-11.6-21.7-20.7-44.5-27.2-68.2c-6.1-22.1-10-44.6-11.6-67.5c-0.2-2.7-0.4-5.4-0.6-8C139.4,568.6,132.7,568.4,125.2,568.4
		L125.2,568.4z"/>
</g>
<g>
	<path d="M495,536.5l3.5,12l0.4,1.2c-1,0.2-1.9,0.5-2.9,0.7c-16.5,3.6-31.9,6.3-47,8.2c-25.5,3.3-50.7,5-75,5c-0.6,0-1.2,0-1.8,0
		c-16.8-0.1-33.7-1-50.3-2.7c-20.1-2.1-39.9-5.7-59-10.7l3.8-13.2c10.9,3.3,23,6,37.9,8.5c22.2,3.7,45,5.4,69.7,5.4
		c4.8,0,9.7-0.1,14.6-0.2c15.4-0.4,31.3-1.7,47.3-3.7c17.9-2.2,34-5,49.4-8.3c2.4-0.5,4.8-1.1,7.2-1.6
		C493.6,536.9,494.3,536.7,495,536.5 M498.5,530.7c-0.9,0.2-1.6,0.3-2.3,0.4c-3.9,0.9-7.8,1.8-11.7,2.6c-16.2,3.5-32.5,6.2-48.9,8.2
		c-15.6,1.9-31.2,3.2-46.9,3.6c-4.8,0.1-9.7,0.2-14.5,0.2c-23.1,0-46.1-1.6-68.9-5.4c-13.7-2.2-27.2-5-40.4-9.3
		c-0.5-0.2-1-0.2-1.8-0.4c-2.2,7.6-4.3,15.1-6.5,22.8c1,0.3,1.8,0.6,2.7,0.8c20.4,5.4,41,9.2,61.9,11.4c16.9,1.8,33.8,2.7,50.8,2.8
		c0.6,0,1.2,0,1.8,0c25.3,0,50.6-1.8,75.7-5c15.9-2.1,31.7-4.9,47.5-8.3c2.6-0.6,5.2-1.3,8.1-2C502.9,545.7,500.8,538.4,498.5,530.7
		L498.5,530.7z"/>
</g>
<g>
	<path d="M402.4,73.7c2,5.9,4.1,11.7,6.2,17.6c1.6,4.6,3.5,9.1,5.3,13.4c0.8,1.8,1.5,3.6,2.3,5.5c0.3,0.7,0.6,1.4,1,2
		c0.1,0.3,0.3,0.6,0.5,0.9l3.5,7.2l4.9-6.3l19.6-25.3l0.1-0.2c-3.6,25.5-4.2,51.4-1.7,77.2c1.5,16.2,4.4,32.1,8.4,47.5
		c-1.4-3.1-2.8-6.1-4-9.2c-6-14.7-11.9-31.7-14.6-56.4l-0.7-6.1l-5.8,1.9c-2.2,0.7-3.7,2.4-4.4,4.9l0,0.1c-1.5,4.1-3,8.2-4.6,12.2
		l-3.8-14.7l-3.2-12.4l-0.9-3.6l-3.7-0.2l-0.5,0l-4.4-0.2l-0.4,2.2C402.6,112.5,402.9,92.9,402.4,73.7 M394.4,35.4
		c-0.3,0.7-0.3,1.2-0.2,1.7c2.2,11.8,2.9,23.8,3.2,35.8c0.6,22.2,0.1,44.5-1.3,66.7c-1.1,17.7-2.6,35.4-3.8,53.1
		c-0.1,1.9-0.3,3.9-0.5,5.8c0.7-0.7,1.1-1.5,1.4-2.3c1-3.1,2-6.2,2.8-9.4c3.9-15.2,6.5-30.6,9.1-46.1c0.3-2,0.7-3.9,1-5.9
		c0.2,0,0.3,0,0.5,0c3.6,13.9,7.1,27.7,10.7,41.6c0.2,0,0.3,0,0.5,0c0.4-0.9,0.8-1.8,1.1-2.8c2.9-7.9,5.8-15.7,8.8-23.6
		c0.2-0.7,0.2-1.6,1.2-1.9c2.9,26.7,9.6,44.6,14.9,57.7c9,22,24.5,46.3,29.9,51.4c-13.7-29.3-21.7-60-24.7-92.1
		c-3-32.1-1.4-64,5.1-95.7c-10.6,13.7-21.2,27.4-32,41.3c-0.5-1.1-1-1.8-1.3-2.6c-2.5-6.2-5.3-12.4-7.5-18.7
		c-6.1-17.1-11.9-34.3-17.9-51.4C395.1,37.3,394.7,36.3,394.4,35.4L394.4,35.4z"/>
</g>
<g>
	<path d="M316.2,273.1c-3,6.2-5.8,12.5-8.2,18.7c-8.7,21.8-14.5,44-17.3,66c-1.6,12.3-2.2,24.5-1.8,36.5
		c-1.6-13.8-2.2-28.8-1.8-45.7l0-0.5c0-1.4,0.1-3.1-0.3-5l-2.1-10.3l-6.7,8.1c-0.1,0.2-0.3,0.3-0.4,0.5c-0.4,0.4-0.8,1-1.2,1.5
		c-5,7.1-8.7,15.3-11.3,25.2c-2.6,10-3.7,20.8-3.5,33.9c0.3,15.9,2.5,32.4,7,51.7c-1.6-4.2-3-8.5-4.3-12.7c-4.8-15.9-7.1-31.7-7-47
		c0.1-13,2-26,5.6-38.7c5.1-17.9,13.4-34.6,25.3-51C296.1,293.1,305.6,282.7,316.2,273.1 M331.2,254.8c-0.7,0.4-1,0.5-1.3,0.7
		c-2.1,1.5-4.2,3-6.2,4.6c-15.1,12-28.5,25.7-39.8,41.3c-11.6,16.1-20.6,33.5-26,52.6c-3.7,13.1-5.7,26.4-5.8,40
		c-0.1,16.5,2.5,32.7,7.2,48.4c6.4,21.3,16.3,40.9,28.4,59.6c0.3,0.4,0.6,0.8,0.9,1.1c0-0.7-0.1-1.3-0.4-1.9
		c-5.8-15.2-10.7-30.8-14.5-46.7c-4.1-17.3-7.1-34.8-7.3-52.6c-0.2-11,0.5-21.9,3.3-32.6c2.2-8.4,5.4-16.4,10.5-23.5
		c0.4-0.6,1-1.2,1.4-1.8c0.3,1.6,0.2,3,0.2,4.4c-0.4,16.5,0.1,32.9,2.2,49.3c1.1,8.7,2.7,17.2,5.7,25.5c1.7,4.9,3.8,9.7,7.1,13.8
		c1.1,1.4,2.4,2.7,3.6,4c0.1-0.1,0.2-0.2,0.4-0.3c-0.1-0.5-0.2-1.1-0.4-1.6c-3.4-11.2-5.2-22.7-6.2-34.4c-1.2-15.5-0.8-31,1.2-46.4
		c2.9-22.3,8.7-43.9,17-64.8c5-12.6,11-24.9,17.6-36.7C330.5,256.4,330.8,255.8,331.2,254.8L331.2,254.8z"/>
</g>
<g>
	<path d="M418.6,231.9c0.9,0.5,1.9,1.1,2.8,1.7c12.3,7.4,23.4,15.9,33.2,25.3c15.5,15,27.3,32,34.9,50.7
		c5.4,13.2,8.8,27.2,10.1,41.7c0.6,6.3,0.8,12.7,0.6,19.3c-1-11.2-2.6-21.3-4.8-30.6c-3.7-15.4-8.6-27.5-15.4-38.1
		c-4.2-6.5-8.9-11.8-14.2-16.2c-1-0.9-2.3-1.8-4.1-2.5l-9.9-3.8l3.3,10.1c0.1,0.2,0.1,0.4,0.2,0.5c0.2,0.5,0.3,1.1,0.6,1.8
		c5.4,13,9.1,26.7,10.8,40.8c0.7,5.2,1,10.1,1,14.9c-0.7-4.6-1.6-9.2-2.6-14.1c-4.2-20.7-10.5-40.2-18.7-57.8
		C438.5,258.7,429.4,244.3,418.6,231.9 M393.2,214.3c3.9,3.7,7.9,6.9,11.7,10.5c15.9,15.1,27.7,33,36.9,52.8
		c8.4,18.1,14.4,37.1,18.4,56.7c2.7,13.2,4.7,26.4,5.5,39.9c0.1,2.1,0.3,4.2,0.5,6.3c0.2,0,0.3,0.1,0.5,0.1c0.6-1.7,1.2-3.4,1.8-5.1
		c4.6-14.3,5.1-28.9,3.2-43.7c-1.8-14.5-5.6-28.5-11.2-42c-0.3-0.6-0.4-1.3-0.7-1.9c1.1,0.4,1.9,1,2.7,1.7
		c5.2,4.3,9.5,9.4,13.2,15.1c7.3,11.2,11.7,23.6,14.8,36.5c3.1,13.1,4.7,26.4,5.4,39.9c0.7,13.3,0.5,26.5-0.5,39.8
		c-0.2,2.8-0.4,5.6-0.6,8.3c0.1,0.1,0.3,0.1,0.4,0.2c0.2-0.5,0.4-1,0.5-1.5c3.5-12.1,6.4-24.4,7.9-37c1.6-13.3,2.1-26.6,0.9-40
		c-1.3-14.9-4.8-29.3-10.5-43.2c-8.2-20.1-20.5-37.4-36.1-52.4c-10.3-10-21.8-18.6-34.1-26c-8.9-5.4-18.2-10-27.8-14
		C395.2,214.9,394.2,214.6,393.2,214.3L393.2,214.3z"/>
</g>
<g>
	<path d="M379.3,64.7c-0.2,22.8-3.3,45.3-9.3,67.3c-9.7,35.5-25.6,67.7-47.5,96.3c9-30.1,11.3-60.8,6.7-91.9
		c3.8,5.8,7.1,12,10.4,18.3c0.3,0.5,0.6,1.1,0.9,1.7l0.5,0.9l3.3,6.2l4.7-5.2c0.3-0.4,0.6-0.7,0.9-1c0.7-0.7,1.3-1.4,1.9-2.2
		c6-7.2,9.7-15.4,12.3-21.7c4.1-10.2,7.3-21.4,10.2-36.4C376.4,87,378,76.5,379.3,64.7 M378,2.8c-0.2,0.5-0.3,1-0.3,1.6
		c-0.1,14.2-0.7,28.3-1.8,42.4c-1.3,16.5-3.2,32.9-6.4,49.2c-2.4,12.1-5.3,24-10,35.5c-3,7.3-6.4,14.3-11.5,20.4
		c-0.8,1-1.7,1.9-2.7,3c-0.5-1-1-1.7-1.4-2.5c-4.1-7.9-8.3-15.7-13.5-22.9c-2.2-3-4.8-5.8-7.3-8.6c-0.6-0.7-1.4-1.1-2.4-1.9
		c10.9,46.4,6.2,90.9-12.9,134.1c32.3-34.4,54.4-74.4,66.8-119.8C386.6,90.1,387.2,46.6,378,2.8L378,2.8z"/>
</g>
</svg>
